<svg xmlns="http://www.w3.org/2000/svg" xmlns:xlink="http://www.w3.org/1999/xlink" version="1.1" x="0px" y="0px" viewBox="0 0 512 640" enable-background="new 0 0 512 512" xml:space="preserve"><path d="M502.1,274.1h-13.4V99.7c0-17.5-14.2-31.8-31.8-31.8H55.1c-17.5,0-31.8,14.2-31.8,31.8v174.3H9.9c-4.4,0-7.9,3.6-7.9,7.9  v61.8v92.2c0,4.4,3.6,7.9,7.9,7.9h42.7c3,0,5.7-1.7,7.1-4.3l21.6-41.8h349.5l21.6,41.8c1.4,2.6,4.1,4.3,7.1,4.3h42.7  c4.4,0,7.9-3.6,7.9-7.9v-92.2V282C510,277.6,506.4,274.1,502.1,274.1z M39.2,99.7c0-8.8,7.1-15.9,15.9-15.9h401.8  c8.8,0,15.9,7.1,15.9,15.9v174.3h-31.4v-14.8c0-17.5-14.2-31.8-31.8-31.8H279.8c-9.5,0-18,4.3-23.8,11c-5.8-6.7-14.3-11-23.8-11  H102.4c-17.5,0-31.8,14.2-31.8,31.8v14.8H39.2V99.7z M86.5,274.1v-14.8c0-8.8,7.1-15.9,15.9-15.9h129.8c8.8,0,15.9,7.1,15.9,15.9  v14.8H86.5z M263.9,259.3c0-8.8,7.1-15.9,15.9-15.9h129.8c8.8,0,15.9,7.1,15.9,15.9v14.8H263.9V259.3z M17.9,289.9h476.3v46H17.9  V289.9z M494.1,428.2h-29.9l-21.6-41.8c-1.4-2.6-4.1-4.3-7.1-4.3H76.4c-3,0-5.7,1.7-7.1,4.3l-21.6,41.8H17.9v-76.4h476.3V428.2z"/><text x="0" y="527" fill="#000000" font-size="5px" font-weight="bold" font-family="'Helvetica Neue', Helvetica, Arial-Unicode, Arial, Sans-serif">Created by Creative Stall</text><text x="0" y="532" fill="#000000" font-size="5px" font-weight="bold" font-family="'Helvetica Neue', Helvetica, Arial-Unicode, Arial, Sans-serif">from the Noun Project</text></svg>