<svg xmlns="http://www.w3.org/2000/svg" data-name="Layer 1" viewBox="0 0 100 125" x="0px" y="0px"><title>apartment Icons</title><path d="M90,92H10a2,2,0,0,1-2-2V60a2,2,0,0,1,4,0V88H88V12H12V40a2,2,0,0,1-4,0V10a2,2,0,0,1,2-2H90a2,2,0,0,1,2,2V90A2,2,0,0,1,90,92Z"/><path d="M90,48H50a2,2,0,0,1-2-2V30a2,2,0,0,1,4,0V44H90a2,2,0,0,1,0,4Z"/><path d="M50,22a2,2,0,0,1-2-2V10a2,2,0,0,1,4,0V20A2,2,0,0,1,50,22Z"/><path d="M43,92H10a2,2,0,0,1-2-2V66a2,2,0,0,1,2-2H43a2,2,0,0,1,2,2v4a2,2,0,0,1-4,0V68H12V88H41V80a2,2,0,0,1,4,0V90A2,2,0,0,1,43,92Z"/><path d="M90,92H58a2,2,0,0,1-2-2V80a2,2,0,0,1,4,0v8H88V48H60V70a2,2,0,0,1-4,0V46a2,2,0,0,1,2-2H90a2,2,0,0,1,2,2V90A2,2,0,0,1,90,92Z"/><text x="0" y="115" fill="#000000" font-size="5px" font-weight="bold" font-family="'Helvetica Neue', Helvetica, Arial-Unicode, Arial, Sans-serif">Created by Blair Adams</text><text x="0" y="120" fill="#000000" font-size="5px" font-weight="bold" font-family="'Helvetica Neue', Helvetica, Arial-Unicode, Arial, Sans-serif">from the Noun Project</text></svg>